<svg width="200" height="200" viewBox="0 0 200 200" fill="none" xmlns="http://www.w3.org/2000/svg">
<circle cx="100" cy="100" r="99.5" fill="#FF0000" stroke="#FF0000"/>
<path d="M66.6847 146H52.8352L92.892 36.9091H106.528L146.585 146H132.736L100.136 54.1676H99.2841L66.6847 146ZM71.7983 103.386H127.622V115.105H71.7983V103.386Z" fill="white"/>
<path d="M49.2045 169.32C47.5284 169.32 46.0866 168.964 44.8793 168.254C43.679 167.537 42.7557 166.543 42.1094 165.271C41.4702 164 41.1506 162.537 41.1506 160.882C41.1506 159.206 41.4737 157.736 42.12 156.472C42.7734 155.2 43.7003 154.21 44.9006 153.499C46.1009 152.782 47.5284 152.423 49.1832 152.423C50.6108 152.423 51.8608 152.683 52.9332 153.201C54.0057 153.719 54.8544 154.447 55.4794 155.385C56.1044 156.322 56.4489 157.423 56.5128 158.688H52.2301C52.1094 157.871 51.7898 157.214 51.2713 156.717C50.7599 156.212 50.0888 155.96 49.2578 155.96C48.5547 155.96 47.9403 156.152 47.4148 156.536C46.8963 156.912 46.4915 157.462 46.2003 158.187C45.9091 158.911 45.7635 159.788 45.7635 160.818C45.7635 161.862 45.9055 162.75 46.1896 163.482C46.4808 164.213 46.8892 164.771 47.4148 165.154C47.9403 165.538 48.5547 165.729 49.2578 165.729C49.7763 165.729 50.2415 165.623 50.6534 165.41C51.0724 165.197 51.4169 164.888 51.6868 164.483C51.9638 164.071 52.1449 163.577 52.2301 163.002H56.5128C56.4418 164.252 56.1009 165.353 55.4901 166.305C54.8864 167.249 54.0518 167.988 52.9865 168.521C51.9212 169.053 50.6605 169.32 49.2045 169.32ZM66.812 169.32C65.1571 169.32 63.726 168.968 62.5186 168.265C61.3184 167.555 60.3915 166.567 59.7381 165.303C59.0847 164.032 58.758 162.558 58.758 160.882C58.758 159.192 59.0847 157.714 59.7381 156.45C60.3915 155.179 61.3184 154.192 62.5186 153.489C63.726 152.778 65.1571 152.423 66.812 152.423C68.4668 152.423 69.8944 152.778 71.0946 153.489C72.302 154.192 73.2324 155.179 73.8858 156.45C74.5392 157.714 74.8659 159.192 74.8659 160.882C74.8659 162.558 74.5392 164.032 73.8858 165.303C73.2324 166.567 72.302 167.555 71.0946 168.265C69.8944 168.968 68.4668 169.32 66.812 169.32ZM66.8333 165.804C67.5861 165.804 68.2147 165.591 68.7189 165.165C69.2232 164.732 69.6032 164.142 69.8588 163.396C70.1216 162.651 70.253 161.802 70.253 160.85C70.253 159.898 70.1216 159.05 69.8588 158.304C69.6032 157.558 69.2232 156.969 68.7189 156.536C68.2147 156.102 67.5861 155.886 66.8333 155.886C66.0733 155.886 65.4341 156.102 64.9157 156.536C64.4043 156.969 64.0172 157.558 63.7544 158.304C63.4988 159.05 63.3709 159.898 63.3709 160.85C63.3709 161.802 63.4988 162.651 63.7544 163.396C64.0172 164.142 64.4043 164.732 64.9157 165.165C65.4341 165.591 66.0733 165.804 66.8333 165.804ZM82.3553 159.54V169H77.8169V152.636H82.1422V155.523H82.334C82.6962 154.572 83.3034 153.819 84.1557 153.265C85.008 152.704 86.0414 152.423 87.2559 152.423C88.3922 152.423 89.383 152.672 90.2282 153.169C91.0733 153.666 91.7303 154.376 92.199 155.3C92.6678 156.216 92.9022 157.31 92.9022 158.581V169H88.3638V159.391C88.3709 158.389 88.1152 157.608 87.5968 157.047C87.0783 156.479 86.3645 156.195 85.4554 156.195C84.8446 156.195 84.3049 156.326 83.8361 156.589C83.3745 156.852 83.0123 157.235 82.7495 157.739C82.4938 158.237 82.3624 158.837 82.3553 159.54ZM101.017 159.54V169H96.479V152.636H100.804V155.523H100.996C101.358 154.572 101.966 153.819 102.818 153.265C103.67 152.704 104.703 152.423 105.918 152.423C107.054 152.423 108.045 152.672 108.89 153.169C109.735 153.666 110.392 154.376 110.861 155.3C111.33 156.216 111.564 157.31 111.564 158.581V169H107.026V159.391C107.033 158.389 106.777 157.608 106.259 157.047C105.74 156.479 105.027 156.195 104.118 156.195C103.507 156.195 102.967 156.326 102.498 156.589C102.037 156.852 101.674 157.235 101.412 157.739C101.156 158.237 101.025 158.837 101.017 159.54ZM122.599 169.32C120.915 169.32 119.466 168.979 118.252 168.297C117.045 167.608 116.114 166.635 115.461 165.378C114.807 164.114 114.481 162.619 114.481 160.893C114.481 159.21 114.807 157.732 115.461 156.461C116.114 155.19 117.034 154.199 118.22 153.489C119.413 152.778 120.812 152.423 122.417 152.423C123.497 152.423 124.502 152.597 125.432 152.945C126.37 153.286 127.187 153.801 127.883 154.49C128.586 155.179 129.133 156.045 129.523 157.089C129.914 158.126 130.109 159.341 130.109 160.733V161.979H116.292V159.167H125.837C125.837 158.513 125.695 157.935 125.411 157.43C125.127 156.926 124.733 156.532 124.229 156.248C123.731 155.957 123.153 155.811 122.492 155.811C121.803 155.811 121.192 155.971 120.66 156.29C120.134 156.603 119.722 157.026 119.424 157.558C119.126 158.084 118.973 158.67 118.966 159.316V161.99C118.966 162.8 119.115 163.499 119.413 164.089C119.719 164.678 120.148 165.133 120.702 165.452C121.256 165.772 121.913 165.932 122.673 165.932C123.177 165.932 123.639 165.861 124.058 165.719C124.477 165.577 124.836 165.364 125.134 165.08C125.432 164.795 125.66 164.447 125.816 164.036L130.013 164.312C129.8 165.321 129.363 166.202 128.703 166.955C128.05 167.7 127.204 168.283 126.167 168.702C125.138 169.114 123.948 169.32 122.599 169.32ZM140.464 169.32C138.788 169.32 137.346 168.964 136.139 168.254C134.939 167.537 134.015 166.543 133.369 165.271C132.73 164 132.41 162.537 132.41 160.882C132.41 159.206 132.733 157.736 133.38 156.472C134.033 155.2 134.96 154.21 136.16 153.499C137.361 152.782 138.788 152.423 140.443 152.423C141.871 152.423 143.121 152.683 144.193 153.201C145.265 153.719 146.114 154.447 146.739 155.385C147.364 156.322 147.709 157.423 147.773 158.688H143.49C143.369 157.871 143.05 157.214 142.531 156.717C142.02 156.212 141.349 155.96 140.518 155.96C139.814 155.96 139.2 156.152 138.675 156.536C138.156 156.912 137.751 157.462 137.46 158.187C137.169 158.911 137.023 159.788 137.023 160.818C137.023 161.862 137.165 162.75 137.449 163.482C137.741 164.213 138.149 164.771 138.675 165.154C139.2 165.538 139.814 165.729 140.518 165.729C141.036 165.729 141.501 165.623 141.913 165.41C142.332 165.197 142.677 164.888 142.947 164.483C143.224 164.071 143.405 163.577 143.49 163.002H147.773C147.702 164.252 147.361 165.353 146.75 166.305C146.146 167.249 145.312 167.988 144.246 168.521C143.181 169.053 141.92 169.32 140.464 169.32ZM159.382 152.636V156.045H149.528V152.636H159.382ZM151.765 148.716H156.303V163.972C156.303 164.391 156.367 164.717 156.495 164.952C156.623 165.179 156.8 165.339 157.028 165.431C157.262 165.523 157.532 165.57 157.837 165.57C158.05 165.57 158.263 165.552 158.477 165.516C158.69 165.474 158.853 165.442 158.967 165.42L159.68 168.798C159.453 168.869 159.134 168.95 158.722 169.043C158.31 169.142 157.809 169.202 157.219 169.224C156.126 169.266 155.167 169.121 154.343 168.787C153.526 168.453 152.891 167.935 152.436 167.232C151.982 166.528 151.758 165.641 151.765 164.568V148.716Z" fill="white"/>
</svg>
