<svg width="200" height="200" viewBox="0 0 200 200" fill="none" xmlns="http://www.w3.org/2000/svg">
<circle cx="100" cy="100" r="99.5" fill="#2320B5" stroke="#2320B5"/>
<path d="M69.1591 147.426C66.9811 147.426 65.1108 146.948 63.5483 145.991C61.9953 145.035 60.7973 143.714 59.9545 142.028C59.1212 140.333 58.7045 138.383 58.7045 136.176C58.7045 133.96 59.1307 132.005 59.983 130.31C60.8352 128.605 62.0379 127.279 63.5909 126.332C65.1534 125.376 67 124.898 69.1307 124.898C70.9015 124.898 72.4688 125.224 73.8324 125.878C75.2055 126.522 76.2992 127.436 77.1136 128.619C77.928 129.794 78.392 131.167 78.5057 132.739H73.5909C73.392 131.687 72.9186 130.812 72.1705 130.111C71.4318 129.401 70.4422 129.045 69.2017 129.045C68.1506 129.045 67.2273 129.33 66.4318 129.898C65.6364 130.456 65.0161 131.261 64.571 132.312C64.1354 133.364 63.9176 134.623 63.9176 136.091C63.9176 137.578 64.1354 138.856 64.571 139.926C65.0066 140.987 65.6174 141.806 66.4034 142.384C67.1989 142.952 68.1316 143.236 69.2017 143.236C69.9593 143.236 70.6364 143.094 71.233 142.81C71.839 142.516 72.3456 142.095 72.7528 141.545C73.16 140.996 73.4394 140.329 73.5909 139.543H78.5057C78.3826 141.086 77.928 142.455 77.142 143.648C76.3561 144.831 75.286 145.759 73.9318 146.432C72.5777 147.095 70.9867 147.426 69.1591 147.426ZM92.245 147.426C90.1143 147.426 88.2678 146.957 86.7053 146.02C85.1428 145.082 83.9306 143.771 83.0689 142.085C82.2166 140.4 81.7905 138.43 81.7905 136.176C81.7905 133.922 82.2166 131.948 83.0689 130.253C83.9306 128.558 85.1428 127.241 86.7053 126.304C88.2678 125.366 90.1143 124.898 92.245 124.898C94.3757 124.898 96.2223 125.366 97.7848 126.304C99.3473 127.241 100.555 128.558 101.407 130.253C102.269 131.948 102.7 133.922 102.7 136.176C102.7 138.43 102.269 140.4 101.407 142.085C100.555 143.771 99.3473 145.082 97.7848 146.02C96.2223 146.957 94.3757 147.426 92.245 147.426ZM92.2734 143.307C93.4287 143.307 94.3946 142.99 95.1712 142.355C95.9477 141.711 96.5253 140.849 96.9041 139.77C97.2924 138.69 97.4865 137.488 97.4865 136.162C97.4865 134.827 97.2924 133.619 96.9041 132.54C96.5253 131.451 95.9477 130.584 95.1712 129.94C94.3946 129.296 93.4287 128.974 92.2734 128.974C91.0897 128.974 90.1049 129.296 89.3189 129.94C88.5424 130.584 87.96 131.451 87.5717 132.54C87.1929 133.619 87.0036 134.827 87.0036 136.162C87.0036 137.488 87.1929 138.69 87.5717 139.77C87.96 140.849 88.5424 141.711 89.3189 142.355C90.1049 142.99 91.0897 143.307 92.2734 143.307ZM112.206 134.216V147H107.064V125.182H111.979V128.889H112.234C112.736 127.668 113.536 126.697 114.635 125.977C115.743 125.258 117.111 124.898 118.74 124.898C120.246 124.898 121.557 125.22 122.675 125.864C123.802 126.508 124.673 127.44 125.288 128.662C125.913 129.884 126.221 131.366 126.212 133.108V147H121.07V133.903C121.07 132.445 120.691 131.304 119.933 130.48C119.185 129.656 118.148 129.244 116.822 129.244C115.923 129.244 115.123 129.443 114.422 129.841C113.731 130.229 113.186 130.793 112.788 131.531C112.4 132.27 112.206 133.165 112.206 134.216ZM142.49 125.182V129.159H129.592V125.182H142.49ZM132.817 147V123.122C132.817 121.654 133.12 120.433 133.726 119.457C134.341 118.482 135.165 117.753 136.197 117.27C137.23 116.787 138.375 116.545 139.635 116.545C140.525 116.545 141.316 116.616 142.007 116.759C142.698 116.901 143.21 117.028 143.541 117.142L142.518 121.119C142.301 121.053 142.026 120.987 141.695 120.92C141.363 120.845 140.994 120.807 140.587 120.807C139.63 120.807 138.953 121.039 138.555 121.503C138.167 121.957 137.973 122.611 137.973 123.463V147H132.817Z" fill="#9EDA20"/>
<path d="M93.1804 45.0909V96H82.7401L62.4808 66.6179H62.1577V96H49.853V45.0909H60.4425L80.478 74.4233H80.9006V45.0909H93.1804ZM134.327 61.7209C134.045 60.6768 133.631 59.7571 133.084 58.9616C132.537 58.1496 131.866 57.4619 131.07 56.8984C130.275 56.335 129.363 55.9124 128.336 55.6307C127.308 55.3324 126.181 55.1832 124.955 55.1832C122.486 55.1832 120.348 55.7798 118.542 56.973C116.752 58.1662 115.368 59.9062 114.39 62.1932C113.413 64.4635 112.924 67.2228 112.924 70.4709C112.924 73.7356 113.396 76.5196 114.341 78.8232C115.285 81.1267 116.653 82.8833 118.442 84.093C120.232 85.3028 122.403 85.9077 124.955 85.9077C127.209 85.9077 129.115 85.5431 130.672 84.8139C132.247 84.0682 133.44 83.0159 134.252 81.657C135.064 80.2981 135.47 78.6989 135.47 76.8594L137.757 77.1328H125.378V68.1591H147.327V74.8956C147.327 79.4529 146.358 83.3556 144.419 86.6037C142.497 89.8518 139.845 92.3459 136.464 94.0859C133.1 95.826 129.231 96.696 124.856 96.696C120 96.696 115.733 95.6437 112.054 93.5391C108.375 91.4344 105.508 88.4349 103.453 84.5405C101.398 80.6295 100.371 75.9893 100.371 70.62C100.371 66.4439 100.992 62.7401 102.235 59.5085C103.478 56.2604 105.21 53.5095 107.43 51.2557C109.667 49.0019 112.253 47.295 115.186 46.1349C118.136 44.9749 121.309 44.3949 124.706 44.3949C127.656 44.3949 130.399 44.8175 132.934 45.6626C135.487 46.5078 137.74 47.701 139.696 49.2422C141.668 50.7834 143.267 52.6146 144.493 54.7358C145.72 56.857 146.482 59.1854 146.78 61.7209H134.327Z" fill="white"/>
</svg>
