<svg width="200" height="200" viewBox="0 0 200 200" fill="none" xmlns="http://www.w3.org/2000/svg">
<circle cx="100" cy="100" r="99.5" fill="#B5208B" stroke="#B5208B"/>
<path d="M90.7841 133.216V146H85.642V124.182H90.5568V127.889H90.8125C91.3144 126.668 92.1146 125.697 93.2131 124.977C94.321 124.258 95.6894 123.898 97.3182 123.898C98.8239 123.898 100.135 124.22 101.253 124.864C102.38 125.508 103.251 126.44 103.866 127.662C104.491 128.884 104.799 130.366 104.79 132.108V146H99.6477V132.903C99.6477 131.445 99.2689 130.304 98.5114 129.48C97.7633 128.656 96.7263 128.244 95.4006 128.244C94.5009 128.244 93.7008 128.443 93 128.841C92.3087 129.229 91.7642 129.793 91.3665 130.531C90.9782 131.27 90.7841 132.165 90.7841 133.216ZM115.159 116.909V146H110.017V116.909H115.159Z" fill="#6FDDD6"/>
<path d="M93.1804 45.0909V96H82.7401L62.4808 66.6179H62.1577V96H49.853V45.0909H60.4425L80.478 74.4233H80.9006V45.0909H93.1804ZM134.327 61.7209C134.045 60.6768 133.631 59.7571 133.084 58.9616C132.537 58.1496 131.866 57.4619 131.07 56.8984C130.275 56.335 129.363 55.9124 128.336 55.6307C127.308 55.3324 126.181 55.1832 124.955 55.1832C122.486 55.1832 120.348 55.7798 118.542 56.973C116.752 58.1662 115.368 59.9062 114.39 62.1932C113.413 64.4635 112.924 67.2228 112.924 70.4709C112.924 73.7356 113.396 76.5196 114.341 78.8232C115.285 81.1267 116.653 82.8833 118.442 84.093C120.232 85.3028 122.403 85.9077 124.955 85.9077C127.209 85.9077 129.115 85.5431 130.672 84.8139C132.247 84.0682 133.44 83.0159 134.252 81.657C135.064 80.2981 135.47 78.6989 135.47 76.8594L137.757 77.1328H125.378V68.1591H147.327V74.8956C147.327 79.4529 146.358 83.3556 144.419 86.6037C142.497 89.8518 139.845 92.3459 136.464 94.0859C133.1 95.826 129.231 96.696 124.856 96.696C120 96.696 115.733 95.6437 112.054 93.5391C108.375 91.4344 105.508 88.4349 103.453 84.5405C101.398 80.6295 100.371 75.9893 100.371 70.62C100.371 66.4439 100.992 62.7401 102.235 59.5085C103.478 56.2604 105.21 53.5095 107.43 51.2557C109.667 49.0019 112.253 47.295 115.186 46.1349C118.136 44.9749 121.309 44.3949 124.706 44.3949C127.656 44.3949 130.399 44.8175 132.934 45.6626C135.487 46.5078 137.74 47.701 139.696 49.2422C141.668 50.7834 143.267 52.6146 144.493 54.7358C145.72 56.857 146.482 59.1854 146.78 61.7209H134.327Z" fill="white"/>
</svg>
