<svg width="200" height="200" viewBox="0 0 200 200" fill="none" xmlns="http://www.w3.org/2000/svg">
<circle cx="100" cy="100" r="99.5" fill="#B5208B" stroke="#B5208B"/>
<path d="M52.92 137.52C53.4 135.867 55.1867 130.2 58.28 120.52L54.72 119.44L55.04 117H65.4C65.88 117.96 66.1333 119.013 66.16 120.16L63.68 120.52L55.72 145H50.4L41.8 120.52L38.24 119.44L38.56 117H48.92C49.4 117.96 49.6533 119.013 49.68 120.16C48.5333 120.347 47.7467 120.467 47.32 120.52L52.92 137.52ZM77.1788 121C77.1788 124.04 77.1521 126.653 77.0988 128.84H81.1788L81.5788 126.08C82.9388 126.08 84.2588 126.413 85.5388 127.08V135.08L82.8988 135.2C82.2588 134.24 81.8854 133.4 81.7788 132.68H77.0588C77.0054 136.413 76.9788 139.227 76.9788 141.12H83.8188L84.6988 137.64C86.3521 137.64 87.6054 137.72 88.4588 137.88C88.8588 139.4 89.0588 140.787 89.0588 142.04C89.0588 143.267 89.0188 144.253 88.9388 145H69.0988L68.7388 142.8C70.4721 142.133 71.5921 141.747 72.0988 141.64C72.0721 140.067 72.0454 137.853 72.0188 135C71.9121 128.6 71.8188 123.76 71.7388 120.48L68.4188 119.44L68.7388 117H88.3788C88.4588 117.72 88.4988 118.627 88.4988 119.72C88.4988 120.787 88.2988 122.28 87.8988 124.2C87.0721 124.467 85.8188 124.6 84.1388 124.6L83.2188 121H77.1788ZM103.728 145.52C100.101 145.52 97.2078 144.293 95.0478 141.84C92.8878 139.387 91.8078 135.76 91.8078 130.96C91.8078 126.16 92.7411 122.56 94.6078 120.16C96.5011 117.733 99.5545 116.52 103.768 116.52C105.554 116.52 107.261 116.76 108.888 117.24C110.541 117.72 111.661 118.133 112.248 118.48C112.834 118.8 113.301 119.093 113.648 119.36C113.648 121.067 113.434 122.96 113.008 125.04C112.314 125.36 111.621 125.52 110.928 125.52C110.261 125.52 109.688 125.493 109.208 125.44L108.368 121.28C107.194 120.96 106.048 120.8 104.928 120.8C103.354 120.8 101.394 121.12 99.0478 121.76C97.8745 124.107 97.2878 126.96 97.2878 130.32C97.2878 137.68 99.4478 141.36 103.768 141.36C105.928 141.36 107.648 141 108.928 140.28C108.981 138.893 109.034 136.76 109.088 133.88L105.728 132.84L106.048 130.4H115.728C116.048 130.987 116.288 132.04 116.448 133.56C115.541 133.747 114.568 133.88 113.528 133.96C113.688 137.4 113.768 140.36 113.768 142.84C112.994 143.347 111.594 143.92 109.568 144.56C107.541 145.2 105.594 145.52 103.728 145.52ZM137.979 117.44L138.019 117.84C138.019 118.933 137.845 119.867 137.499 120.64C137.152 120.907 136.605 121.12 135.859 121.28L142.539 141.04L146.339 141.52C146.339 142.613 146.032 143.773 145.419 145H135.699L135.339 142.8C136.459 142.373 137.192 142.093 137.539 141.96L135.939 137.44H126.939C126.139 139.813 125.712 141.053 125.659 141.16L128.419 141.52C128.419 142.08 128.312 142.733 128.099 143.48C127.885 144.2 127.685 144.707 127.499 145H117.779L117.419 142.8C118.619 142.293 119.699 141.92 120.659 141.68L127.379 121.12C125.592 120.853 124.245 120.507 123.339 120.08C123.339 119.307 123.459 118.627 123.699 118.04C124.259 117.853 125.565 117.64 127.619 117.4C129.699 117.133 131.672 117 133.539 117C135.432 117 136.912 117.147 137.979 117.44ZM132.819 128.44L131.659 123.16H131.259L129.979 128.68L128.099 133.68H134.779L132.819 128.44ZM158.549 141.16C161.642 141.16 163.189 139.84 163.189 137.2C163.189 136.08 162.602 135.133 161.429 134.36C160.576 133.773 159.402 133.147 157.909 132.48C156.442 131.787 155.336 131.24 154.589 130.84C153.869 130.44 153.029 129.88 152.069 129.16C150.229 127.747 149.309 125.987 149.309 123.88C149.309 121.773 150.122 120.027 151.749 118.64C153.402 117.227 155.629 116.52 158.429 116.52C161.229 116.52 164.216 117.413 167.389 119.2C167.389 121.12 167.189 123.2 166.789 125.44C165.936 125.707 164.669 125.84 162.989 125.84L161.829 121.08C160.842 120.787 159.762 120.64 158.589 120.64C157.416 120.64 156.509 120.893 155.869 121.4C155.229 121.907 154.909 122.667 154.909 123.68C154.909 124.667 155.402 125.56 156.389 126.36C157.402 127.133 158.616 127.853 160.029 128.52C161.442 129.16 162.416 129.613 162.949 129.88C163.482 130.147 164.162 130.547 164.989 131.08C165.816 131.613 166.442 132.12 166.869 132.6C167.962 133.88 168.509 135.307 168.509 136.88C168.509 139.653 167.589 141.787 165.749 143.28C163.909 144.773 161.509 145.52 158.549 145.52C156.976 145.52 155.242 145.253 153.349 144.72C151.482 144.16 149.896 143.453 148.589 142.6C148.642 140.973 148.856 138.773 149.229 136C150.296 135.787 151.576 135.68 153.069 135.68L153.909 140.48C155.376 140.933 156.922 141.16 158.549 141.16Z" fill="#6FDDD6"/>
<path d="M93.1804 45.0909V96H82.7401L62.4808 66.6179H62.1577V96H49.853V45.0909H60.4425L80.478 74.4233H80.9006V45.0909H93.1804ZM134.327 61.7209C134.045 60.6768 133.631 59.7571 133.084 58.9616C132.537 58.1496 131.866 57.4619 131.07 56.8984C130.275 56.335 129.363 55.9124 128.336 55.6307C127.308 55.3324 126.181 55.1832 124.955 55.1832C122.486 55.1832 120.348 55.7798 118.542 56.973C116.752 58.1662 115.368 59.9062 114.39 62.1932C113.413 64.4635 112.924 67.2228 112.924 70.4709C112.924 73.7356 113.396 76.5196 114.341 78.8232C115.285 81.1267 116.653 82.8833 118.442 84.093C120.232 85.3028 122.403 85.9077 124.955 85.9077C127.209 85.9077 129.115 85.5431 130.672 84.8139C132.247 84.0682 133.44 83.0159 134.252 81.657C135.064 80.2981 135.47 78.6989 135.47 76.8594L137.757 77.1328H125.378V68.1591H147.327V74.8956C147.327 79.4529 146.358 83.3556 144.419 86.6037C142.497 89.8518 139.845 92.3459 136.464 94.0859C133.1 95.826 129.231 96.696 124.856 96.696C120 96.696 115.733 95.6437 112.054 93.5391C108.375 91.4344 105.508 88.4349 103.453 84.5405C101.398 80.6295 100.371 75.9893 100.371 70.62C100.371 66.4439 100.992 62.7401 102.235 59.5085C103.478 56.2604 105.21 53.5095 107.43 51.2557C109.667 49.0019 112.253 47.295 115.186 46.1349C118.136 44.9749 121.309 44.3949 124.706 44.3949C127.656 44.3949 130.399 44.8175 132.934 45.6626C135.487 46.5078 137.74 47.701 139.696 49.2422C141.668 50.7834 143.267 52.6146 144.493 54.7358C145.72 56.857 146.482 59.1854 146.78 61.7209H134.327Z" fill="white"/>
</svg>
